<?xml version="1.0" encoding="UTF-8"?>
<svg width="40px" height="40px" viewBox="0 0 40 40" version="1.1" xmlns="http://www.w3.org/2000/svg" xmlns:xlink="http://www.w3.org/1999/xlink">
    <title>ICON/CURRENCY/LTC</title>
    <g id="ICON/CURRENCY/LTC" stroke="none" stroke-width="1" fill="none" fill-rule="evenodd">
        <g>
            <rect id="Rectangle_36" x="0" y="0.002" width="40" height="40"></rect>
            <g id="ICON_BG" transform="translate(2.000000, 0.002000)" fill="#5C6082" fill-rule="nonzero">
                <path d="M17.9892578,39.4996643 L17.9819336,39.4996643 L17.9672852,39.4992065 L17.9404297,39.4984436 C17.3696289,39.4862976 16.8076172,39.3172607 16.2202148,38.9815979 C14.9453125,38.2530518 13.6459961,37.5176392 12.3901367,36.8064575 C10.6279297,35.809021 8.80615234,34.7775879 7.02294922,33.7496338 C6.86132812,33.6563416 6.70214844,33.547821 6.54980469,33.427124 L6.52001953,33.403595 L6.48730469,33.3848267 C5.03759766,32.5567017 3.49267578,31.6741333 1.94873047,30.7895508 C0.974121094,30.2301331 0.5,29.3623962 0.5,28.1369934 L0.5,23.0379944 L0.5,23.0336609 L0.5,23.0292969 C0.499023437,22.9757996 0.499023437,22.9215088 0.499023437,22.8674927 C0.5,21.9115295 0.5,20.9550781 0.5,19.9989929 C0.5,19.0429077 0.5,18.0864563 0.499023437,17.1294861 C0.499023437,17.0760803 0.499023437,17.0220337 0.5,16.9681396 L0.5,16.9638062 L0.5,16.9595032 L0.5,11.8613892 C0.5,10.6353149 0.974121094,9.76745605 1.94873047,9.20822144 C3.13037109,8.53060913 4.31298828,7.85510254 5.49560547,7.17941284 L6.48730469,6.61260986 L6.52001953,6.59384155 L6.54980469,6.57037354 C6.69921875,6.4519043 6.85888672,6.34362793 7.0234375,6.24853516 C8.79394531,5.22769165 10.6030273,4.20336914 12.3525391,3.21276855 C13.6210938,2.49453735 14.9326172,1.75186157 16.2202148,1.01586914 C16.8076172,0.680419922 17.3696289,0.511657715 17.9379883,0.499969482 L17.9467773,0.499786377 L17.9560547,0.499298096 C17.9619141,0.498962402 17.9677734,0.498443604 17.9736328,0.498443604 L17.9785156,0.498443604 L17.9838867,0.498443604 C17.9921875,0.498443604 18.0009766,0.498443604 18.0097656,0.498443604 C18.0517578,0.498443604 18.0976562,0.500305176 18.1381836,0.502197266 C18.1494141,0.502990723 18.1606445,0.503479004 18.171875,0.503845215 C18.7104492,0.533782959 19.25,0.706878662 19.8173828,1.03289795 C21.5854492,2.05093384 23.3520508,3.06176758 24.847168,3.9163208 C25.7832031,4.4458313 26.6479492,4.93942261 27.4931641,5.42633057 C29.6171875,6.63705444 31.7397461,7.84494019 33.8632812,9.05279541 C34.9897461,9.69345093 35.5097656,10.5818176 35.4991864,11.8486328 C35.4887695,13.088501 35.4912109,14.348175 35.4931641,15.5663757 C35.4941406,15.9966736 35.4946289,16.4269714 35.4951172,16.8572998 L35.4951172,16.8670044 L35.4956055,16.876709 C35.496582,16.9051514 35.4970703,16.93396 35.496582,16.9633789 L35.496582,16.9661865 L35.496582,16.9689941 C35.4951172,17.8911438 35.4946289,18.8141174 35.4946289,19.7359009 C35.4946289,19.8223572 35.4946289,19.909729 35.4941406,19.9961853 L35.4941406,19.9989929 L35.4941406,20.0018005 C35.4946289,20.0882568 35.4946289,20.1751404 35.4946289,20.2615967 C35.4946289,21.1841736 35.4951172,22.1063538 35.496582,23.0293884 L35.496582,23.0322571 L35.496582,23.0351562 C35.4970703,23.0638733 35.496582,23.0926819 35.4956055,23.1213989 L35.4951172,23.131012 L35.4951172,23.1405945 C35.4946289,23.5708008 35.4941406,24.0009766 35.4931641,24.4311523 C35.4912109,25.6493835 35.4887695,26.9090881 35.4991864,28.149292 C35.5097656,29.4161072 34.9897461,30.3046265 33.8632812,30.9455872 C31.7402344,32.1529236 29.6171875,33.3607788 27.4951172,34.5699768 C26.6835938,35.0380249 25.8183594,35.5319214 24.8486328,36.0811462 C22.9267578,37.1792297 21.328125,38.0953369 19.8168945,38.9651489 C19.2524414,39.2901611 18.7143555,39.4632263 18.171875,39.4941406 C18.1625977,39.4943237 18.1552734,39.4945374 18.1469727,39.4949036 C18.0864258,39.4981689 18.0361328,39.4996643 17.9892578,39.4996643 Z" id="Path" fill-opacity="0.400000006"></path>
                <path d="M18.0097656,0.998443604 L17.9936523,0.998443604 C17.9887695,0.998443604 17.9833984,0.998443604 17.9785156,0.998443604 C17.9682617,0.999298096 17.9584961,0.999664307 17.9482422,0.99987793 C17.465332,1.00979614 16.980957,1.15707397 16.4682617,1.44995117 C15.1801758,2.18643188 13.8681641,2.92935181 12.5991211,3.64776611 C10.8500977,4.63793945 9.04199219,5.66177368 7.2734375,6.68157959 C7.12988281,6.76443481 6.99072266,6.85888672 6.86035156,6.96228027 C6.82080078,6.99353027 6.77929687,7.02175903 6.73535156,7.04669189 L5.73974609,7.61575317 C4.55859375,8.29058838 3.37792969,8.96520996 2.19775391,9.64193726 C1.38037109,10.1106262 1,10.8158875 1,11.8613892 L1,16.9595032 C1,16.9652405 1,16.9710083 1,16.9767456 C0.999023438,17.0278015 0.999023438,17.078949 0.999023438,17.1289978 C1,18.0861206 1,19.0427551 1,19.9989929 C1,20.9552307 1,21.9118652 0.999023438,22.8674927 C0.999023438,22.9186096 0.999023438,22.9699707 1,23.0206299 C1,23.0264282 1,23.032196 1,23.0379944 L1,28.1369934 C1,29.1818848 1.38085938,29.8870239 2.19726562,30.3557129 C3.74414062,31.2419434 5.28710937,32.1235657 6.73535156,32.9506836 C6.77880859,32.975647 6.82080078,33.0039062 6.86035156,33.0352173 C6.99365234,33.1407776 7.13232422,33.2354431 7.27294922,33.3164673 C9.05419922,34.3434143 10.875,35.3743286 12.6362305,36.3713074 C13.8930664,37.0827637 15.1923828,37.8184204 16.4682617,38.5474548 C16.9814453,38.8406982 17.4658203,38.9882507 17.953125,38.9986267 L17.9814453,38.9996338 L17.9897461,38.9996338 C18.0273437,38.9996338 18.0683594,38.9984131 18.1162109,38.9958496 C18.1186523,38.995697 18.121582,38.9955444 18.1245117,38.9954224 C18.1337891,38.9949951 18.1425781,38.9946899 18.1523437,38.9944458 C18.6118164,38.9667053 19.0751953,38.8153076 19.5673828,38.5317993 C21.0795898,37.6617432 22.6782227,36.7453613 24.6025391,35.6460571 C25.5712891,35.0974731 26.4350586,34.6042175 27.2431641,34.1381226 C27.2446289,34.1372681 27.2460937,34.1364136 27.2475586,34.1355286 C29.3701172,32.9263 31.4926758,31.7183533 33.6157227,30.5109863 C34.581543,29.9616699 35.0083008,29.2346191 34.9991714,28.1533813 C34.9887695,26.9111023 34.9912109,25.6505432 34.9931641,24.431488 C34.9941406,24.0010986 34.9946289,23.5707092 34.9951172,23.1403198 C34.9951172,23.1274109 34.9956055,23.1145325 34.9960937,23.1016235 C34.996582,23.081665 34.9970703,23.0616455 34.996582,23.041687 C34.996582,23.0378723 34.996582,23.0340271 34.996582,23.0301819 C34.9951172,22.1068726 34.9946289,21.1844177 34.9946289,20.2615967 C34.9946289,20.1760559 34.9946289,20.0901489 34.9941406,20.0046082 C34.9941406,20.0008545 34.9941406,19.9971313 34.9941406,19.9933777 C34.9946289,19.9078369 34.9946289,19.8214417 34.9946289,19.7359009 C34.9946289,18.8138733 34.9951172,17.890625 34.996582,16.9682007 C34.996582,16.964447 34.996582,16.9607239 34.996582,16.9570007 C34.9970703,16.9365234 34.996582,16.9164734 34.9960937,16.896698 C34.9956055,16.883667 34.9951172,16.8706055 34.9951172,16.8575745 C34.9946289,16.427063 34.9941406,15.9965515 34.9931641,15.56604 C34.9912109,14.3470154 34.9887695,13.0864868 34.9991714,11.8444214 C35.0083008,10.7633667 34.581543,10.0364685 33.6157227,9.48739624 C31.4926758,8.27944946 29.3696289,7.0715332 27.2436523,5.85958862 C26.3984375,5.37271118 25.534668,4.87976074 24.5991211,4.35040283 C23.1035156,3.4956665 21.3364258,2.48458862 19.5678711,1.46636963 C19.0732422,1.18203735 18.6088867,1.03051758 18.1494141,1.00335693 C18.1362305,1.00289917 18.1230469,1.0022583 18.1103516,1.00143433 C18.0766602,0.999908447 18.0400391,0.998443604 18.0097656,0.998443604 M18.0097656,-0.00152587891 C18.0629883,-0.00152587891 18.1166992,0.000640869141 18.1699219,0.00311279297 C18.1787109,0.00399780273 18.1870117,0.00399780273 18.1958008,0.00439453125 C18.8149414,0.0387878418 19.4350586,0.23651123 20.0664062,0.599395752 C21.7407227,1.56350708 23.4174805,2.52328491 25.0952148,3.48220825 C25.9794922,3.98251343 26.8623047,4.48590088 27.7426758,4.99310303 C29.8647461,6.2026062 31.9873047,7.41040039 34.1103516,8.61819458 C35.3803711,9.34030151 36.0112305,10.3991089 35.9991972,11.8528137 C35.9853516,13.5203857 35.9941406,15.1885071 35.9951172,16.8569946 C35.996582,16.8940125 35.9970703,16.931488 35.996582,16.9697876 C35.9951172,17.8916931 35.9946289,18.8143921 35.9946289,19.7359009 C35.9946289,19.8233032 35.9946289,19.9115906 35.9941406,19.9989929 C35.9946289,20.0863953 35.9946289,20.1741943 35.9946289,20.2615967 C35.9946289,21.1838989 35.9951172,22.1058044 35.996582,23.028595 C35.9970703,23.0660095 35.996582,23.1034851 35.9951172,23.1408997 C35.9941406,24.8089905 35.9853516,26.4771118 35.9991972,28.1452026 C36.0112305,29.5993042 35.3803711,30.6577148 34.1103516,31.380188 C31.9873047,32.5874939 29.8647461,33.7952881 27.7426758,35.0043945 C26.8623047,35.512085 25.9794922,36.0154114 25.0952148,36.5162048 C23.4174805,37.4747009 21.7407227,38.434906 20.0664062,39.3984985 C19.4350586,39.7619019 18.8149414,39.9591064 18.1958008,39.9935913 C18.1870117,39.993988 18.1787109,39.993988 18.1699219,39.9943848 C18.1103516,39.9976196 18.0498047,39.9996338 17.9897461,39.9996338 C17.984375,39.9996338 17.9790039,39.9996338 17.9736328,39.9996338 C17.9584961,39.9992065 17.9433594,39.9986877 17.9277344,39.998291 C17.2792969,39.9844971 16.6308594,39.7921143 15.972168,39.4157104 C12.909668,37.665802 9.82958984,35.9447937 6.7734375,34.1828003 C6.58007812,34.0712891 6.40283203,33.9486084 6.23925781,33.8190002 C4.72558594,32.9544067 3.21240234,32.0898132 1.70019531,31.2233887 C0.517089844,30.5444031 -2.16840434e-19,29.471405 -2.16840434e-19,28.1369934 C-2.16840434e-19,26.4375 -2.16840434e-19,24.7376099 -2.16840434e-19,23.0379944 C-0.0009765625,22.9815979 -0.0009765625,22.924408 -0.0009765625,22.8674927 C-2.16840434e-19,21.9111938 -2.16840434e-19,20.954895 -2.16840434e-19,19.9989929 C-2.16840434e-19,19.0430908 -2.16840434e-19,18.086792 -0.0009765625,17.1300049 C-0.0009765625,17.0732117 -0.0009765625,17.0162964 -2.16840434e-19,16.9595032 C-2.16840434e-19,15.2600098 -2.16840434e-19,13.5604858 -2.16840434e-19,11.8613892 C-2.16840434e-19,10.5266113 0.517089844,9.45309448 1.70019531,8.77450562 C3.21240234,7.9072876 4.72558594,7.04360962 6.23925781,6.17849731 C6.40283203,6.04888916 6.58007812,5.92709351 6.7734375,5.81549072 C9.82958984,4.05319214 12.909668,2.33248901 15.972168,0.581787109 C16.6308594,0.205505371 17.2792969,0.0133972168 17.9277344,9.15527343e-05 C17.9433594,-0.000793457031 17.9584961,-0.00152587891 17.9736328,-0.00152587891 C17.9853516,-0.00152587891 17.9975586,-0.00152587891 18.0097656,-0.00152587891 Z" id="Shape"></path>
            </g>
            <polygon id="ICON_LTC-2" fill="#FFFFFF" fill-rule="nonzero" points="13.7 28.002 26.294 28.002 26.994 24.502 19.568 24.502 20.521 20.035 23.381 19.375 23.381 17.548 20.923 18.107 22.379 11.001 17.211 11.001 15.455 19.427 12.996 20.036 12.996 21.863 15.053 21.356"></polygon>
        </g>
    </g>
</svg>