<?xml version="1.0" encoding="UTF-8"?>
<svg width="40px" height="40px" viewBox="0 0 40 40" version="1.1" xmlns="http://www.w3.org/2000/svg" xmlns:xlink="http://www.w3.org/1999/xlink">
    <title>ICON/CURRENCY/XSN</title>
    <g id="ICON/CURRENCY/XSN" stroke="none" stroke-width="1" fill="none" fill-rule="evenodd">
        <g id="ICON_XSN">
            <rect id="Rectangle_38" x="0" y="0" width="40" height="40"></rect>
            <g id="Ellipse_5" transform="translate(1.582000, 0.001000)" fill="#FFFFFF" fill-rule="nonzero">
                <path d="M17.9814453,39.4987183 L17.9703369,39.49823 L17.9445801,39.4971924 L17.9418945,39.4971313 L17.9390869,39.4970703 C17.369751,39.4849243 16.8076172,39.315979 16.2207031,38.9806519 C14.9416504,38.2496338 13.6384277,37.5119629 12.3780518,36.798584 C10.6199951,35.8034668 8.80212402,34.7744751 7.02368164,33.7486572 C6.86071777,33.6546021 6.70129395,33.5460815 6.54992676,33.4260864 L6.52026367,33.4026489 L6.48754883,33.3839111 L5.39147949,32.7575684 C4.24353027,32.1017456 3.09558105,31.4458618 1.94921875,30.7886353 C0.974121094,30.2290649 0.50012207,29.3615723 0.500366211,28.1365967 C0.500366211,26.4370117 0.500366211,24.7371216 0.50012207,23.0375366 C0.499633789,22.9782715 0.499633789,22.9221191 0.499633789,22.8670044 C0.50012207,21.9111938 0.50012207,20.954895 0.50012207,19.9985352 C0.50012207,19.0418701 0.50012207,18.0859375 0.499633789,17.1298828 C0.499633789,17.0744629 0.499633789,17.0188599 0.50012207,16.9631348 C0.500366211,15.2597046 0.500366211,13.5601196 0.500366211,11.8605347 C0.50012207,10.6350708 0.974121094,9.76757812 1.94921875,9.20855713 C2.98596191,8.61346436 4.04138184,8.01049805 5.06213379,7.42736816 C5.53723145,7.15588379 6.01245117,6.88439941 6.48754883,6.6126709 L6.52026367,6.59399414 L6.54980469,6.57061768 C6.6998291,6.45178223 6.859375,6.34344482 7.02380371,6.24847412 C8.79968262,5.22406006 10.6149902,4.1965332 12.3704834,3.20288086 C13.6333008,2.48803711 14.9390869,1.7489624 16.2208252,1.01635742 C16.8093262,0.680603027 17.37146,0.511657715 17.9387207,0.500061035 L17.942627,0.5 L17.9466553,0.49987793 L17.9609375,0.499267578 L17.9750977,0.498718262 L17.9942627,0.498718262 C18.0405273,0.498718262 18.0905762,0.50012207 18.1430664,0.502990723 C18.1533203,0.503479004 18.161377,0.50378418 18.1694336,0.503967285 L18.166748,0.50378418 C18.7122803,0.534606934 19.2519531,0.707763672 19.8173828,1.03320312 C21.3304443,1.90386963 22.975708,2.84692383 24.847168,3.9163208 C25.8209229,4.4677124 26.6859131,4.96142578 27.4932861,5.42657471 C29.2806396,6.4453125 31.0667725,7.46142578 32.8529053,8.47753906 L33.8635254,9.05255127 C34.9903564,9.69372559 35.5101318,10.5821533 35.4996711,11.8485718 C35.4888916,13.0951538 35.4912109,14.3613892 35.4934082,15.5858765 C35.4941406,16.0095825 35.494873,16.4332886 35.4951172,16.8569946 L35.4951172,16.8651123 L35.4953613,16.87323 C35.49646,16.9046631 35.4974365,16.9370728 35.4974365,16.9692383 C35.4951172,17.9077148 35.494873,18.8504639 35.494873,19.7355957 L35.494873,19.9985352 L35.494873,20.2615356 C35.494873,21.1463623 35.4951172,22.0888672 35.4974365,23.0286255 C35.4974365,23.0598145 35.49646,23.0921631 35.4953613,23.1241455 L35.4951172,23.1321411 L35.4951172,23.1401367 C35.494873,23.5638428 35.4941406,23.9875488 35.4934082,24.4112549 C35.4912109,25.6359863 35.4888916,26.9024048 35.4996711,28.1491089 C35.5101318,29.4146729 34.9902344,30.3029785 33.8634033,30.9445801 L32.4591064,31.7435913 C30.8041992,32.6850586 29.1494141,33.6265259 27.4953613,34.5692749 C26.5883789,35.0918579 25.6988525,35.5995483 24.8493652,36.0794067 C22.9038086,37.1914062 21.3056641,38.1074829 19.8173828,38.9636841 C19.2507324,39.2897949 18.7114258,39.4630127 18.168335,39.4931641 L18.1663818,39.4932251 C18.1571045,39.4935303 18.1497803,39.4938354 18.1425781,39.4942017 C18.0814209,39.4970703 18.0289307,39.4987183 17.9814453,39.4987183 Z" id="Path" fill-opacity="0.189999998"></path>
                <path d="M17.9942627,0.998718262 L17.9848633,0.998718262 L17.9815674,0.998718262 L17.9647217,0.999511719 C17.9594727,0.999694824 17.9542236,0.99987793 17.9488525,1 C17.4671631,1.00982666 16.9827881,1.1572876 16.4688721,1.45043945 C15.1862793,2.18365479 13.8797607,2.9230957 12.6164551,3.63818359 C10.8618164,4.63134766 9.04760742,5.65826416 7.27380371,6.68145752 C7.13037109,6.76428223 6.99121094,6.85888672 6.86022949,6.96258545 C6.82092285,6.99371338 6.77929688,7.02185059 6.73583984,7.04669189 C6.25817871,7.31982422 5.78051758,7.59277344 5.30285645,7.86566162 C4.28479004,8.44726562 3.23205566,9.04870605 2.19787598,9.64233398 C1.3807373,10.1108398 1.00012207,10.8156128 1.00036621,11.8605347 C1.00036621,13.5601807 1.00036621,15.2597656 1.00012207,16.9589844 C1.00012207,16.961792 1.00012207,16.9645996 1.00012207,16.9674683 C0.999633789,17.0217285 0.999633789,17.0759277 0.999633789,17.1296387 C1.00012207,18.0858154 1.00012207,19.041748 1.00012207,19.9985352 C1.00012207,20.9549561 1.00012207,21.911377 0.999633789,22.8670044 C0.999633789,22.9207153 0.999633789,22.9753418 1.00012207,23.0289307 C1.00012207,23.0317383 1.00012207,23.0346069 1.00012207,23.0374756 C1.00036621,24.7371216 1.00036621,26.4369507 1.00036621,28.1367188 C1.00012207,29.1810913 1.38085938,29.8859863 2.19787598,30.3548584 C3.34277344,31.0112305 4.48925781,31.6662598 5.63562012,32.321228 L6.7355957,32.9498291 C6.77929688,32.9747314 6.82092285,33.0029297 6.86035156,33.0341797 C6.99450684,33.1405029 7.12976074,33.232605 7.2734375,33.3155518 C9.0501709,34.3403931 10.8671875,35.3688354 12.6243896,36.3634644 C13.8851318,37.0770874 15.1888428,37.8150024 16.46875,38.5465088 C16.9814453,38.8394165 17.4659424,38.9868164 17.9498291,38.9971924 C17.9534912,38.9972534 17.9571533,38.9973755 17.9608154,38.9974365 L17.9901123,38.9986572 C18.0270996,38.9986572 18.0690918,38.9970703 18.1207275,38.9946899 C18.1282959,38.9943237 18.1359863,38.9940186 18.144043,38.9937134 C18.6060791,38.9674683 19.0718994,38.8158569 19.5681152,38.5303345 C21.0554199,37.6745605 22.6540527,36.7582397 24.598999,35.6465454 C24.6004639,35.645752 24.6019287,35.6448975 24.6033936,35.644043 C25.4521484,35.1646729 26.3404541,34.6577148 27.2478027,34.1348877 C28.8967285,33.1950684 30.5462646,32.2565308 32.1960449,31.3179932 L33.6160889,30.5100708 C34.5819092,29.960144 35.008667,29.2332764 34.9996559,28.1533813 C34.9888916,26.9034424 34.9912109,25.6350098 34.9934082,24.4083862 C34.9941406,23.9855347 34.994873,23.5626831 34.9951172,23.1398315 C34.9951172,23.1291504 34.9952393,23.1184692 34.9956055,23.1077881 C34.99646,23.0812378 34.9974365,23.0543823 34.9974365,23.0298462 C34.9951172,22.0895996 34.994873,21.1466675 34.994873,20.2615356 L34.994873,19.9985352 L34.994873,19.7355957 C34.994873,18.8501587 34.9951172,17.9070435 34.9974365,16.9692383 C34.9974365,16.9425659 34.996582,16.9157715 34.9956055,16.8897705 C34.9953613,16.8789062 34.9951172,16.868103 34.9951172,16.8572998 C34.994873,16.4344482 34.9941406,16.0115967 34.9934082,15.5887451 C34.9912109,14.3623657 34.9888916,13.0941772 34.9996559,11.8444214 C35.008667,10.7636108 34.5820312,10.0366211 33.616333,9.48718262 L32.5941162,8.90557861 C30.8116455,7.89154053 29.0292969,6.87756348 27.2437744,5.85986328 C26.4381104,5.39575195 25.5742188,4.90264893 24.5991211,4.35040283 C22.7243652,3.2791748 21.0787354,2.33587646 19.5679932,1.46655273 C19.0760498,1.18347168 18.612793,1.03198242 18.1486816,1.00360107 C18.1396484,1.0032959 18.1306152,1.00299072 18.1218262,1.00256348 C18.119873,1.00244141 18.1179199,1.00238037 18.1159668,1.0022583 C18.0725098,0.99987793 18.0316162,0.998718262 17.9942627,0.998718262 M17.9942627,-0.00128173828 C18.0527344,-0.00128173828 18.1115723,0.000549316406 18.170166,0.00372314453 C18.178833,0.00415039062 18.1878662,0.00415039062 18.1960449,0.00463867188 C18.8150635,0.0396118164 19.4356689,0.236633301 20.0667725,0.599853516 C21.741333,1.56341553 23.4177246,2.52362061 25.0952148,3.48217773 C25.9799805,3.98321533 26.8624268,4.48608398 27.7429199,4.99334717 C29.8648682,6.20275879 31.987915,7.41015625 34.1108398,8.61798096 C35.380127,9.34020996 36.0117188,10.3994751 35.9996853,11.8527832 C35.9853516,13.520752 35.9941406,15.1887207 35.9951172,16.8566895 C35.9963379,16.8935547 35.9974365,16.9315186 35.9974365,16.9692383 C35.9951172,17.8915405 35.994873,18.8137817 35.994873,19.7355957 C35.994873,19.8236084 35.994873,19.9110718 35.994873,19.9985352 C35.994873,20.0860596 35.994873,20.173584 35.994873,20.2615356 C35.994873,21.1832886 35.9951172,22.1050415 35.9974365,23.0273438 C35.9974365,23.0653076 35.9963379,23.1030884 35.9951172,23.1404419 C35.9941406,24.8084106 35.9853516,26.4768677 35.9996853,28.1448975 C36.0117188,29.5985718 35.380127,30.6563721 34.1108398,31.3790894 C31.987915,32.5870361 29.8648682,33.7942505 27.7429199,35.0036621 C26.8624268,35.5110474 25.9799805,36.0150146 25.0952148,36.5147705 C23.4177246,37.4735718 21.741333,38.4336548 20.0667725,39.3970947 C19.4356689,39.7603149 18.8150635,39.9580078 18.1960449,39.9923706 C18.1878662,39.992981 18.178833,39.992981 18.170166,39.9934692 C18.1048584,39.996521 18.0391846,39.9987183 17.9741211,39.9987183 C17.9592285,39.9987183 17.9436035,39.9974365 17.9284668,39.9969482 C17.279541,39.9830933 16.6311035,39.7909546 15.9726563,39.4147949 C12.9099121,37.6643066 9.82922363,35.9441528 6.77380371,34.1817627 C6.58044434,34.0701294 6.40332031,33.947876 6.23937988,33.8179932 C4.72619629,32.953125 3.21203613,32.0889282 1.70056152,31.2224121 C0.517089844,30.5432739 0.000122070312,29.4701538 0.000366210938,28.1365356 C0.000366210938,26.4370117 0.000366210938,24.7371826 0.000122070312,23.0375977 C-0.000366210938,22.9811401 -0.000366210938,22.923584 -0.000366210938,22.8670044 C0.000122070312,21.9110107 0.000122070312,20.9547729 0.000122070312,19.9985352 C0.000122070312,19.0419312 0.000122070312,18.0861206 -0.000366210938,17.130127 C-0.000366210938,17.0730591 -0.000366210938,17.0159912 0.000122070312,16.9588623 C0.000366210938,15.2596436 0.000366210938,13.5601196 0.000366210938,11.8605347 C0.000122070312,10.5268555 0.517089844,9.45324707 1.70056152,8.77478027 C3.21203613,7.90716553 4.72619629,7.04400635 6.23937988,6.1786499 C6.40332031,6.04882812 6.58044434,5.92706299 6.77380371,5.81542969 C9.82922363,4.05291748 12.9099121,2.33294678 15.9726563,0.582275391 C16.6311035,0.206665039 17.279541,0.0134277344 17.9284668,0.000183105469 C17.9436035,-0.000366210938 17.9592285,-0.00128173828 17.9741211,-0.00128173828 C17.980835,-0.00128173828 17.9875488,-0.00128173828 17.9942627,-0.00128173828 Z" id="Shape"></path>
            </g>
            <path d="M24.212,20.009 L28.001,25.52 L26.754,24.296 L22.465,20.009 L32.797,9.682 L33.912,8.572 L24.212,20.009 Z M19.99,17.536 L15.534,13.082 L14.425,11.969 L19.992,15.79 L25.512,11.996 L24.285,13.244 L19.99,17.536 Z M7.2,30.319 L6.087,31.427 L15.769,20.008 L11.969,14.49 L13.217,15.716 L17.511,20.008 L7.2,30.319 Z M19.991,22.482 L24.375,26.863 L25.487,27.971 L19.994,24.223 L14.473,28.017 L15.7,26.769 L19.991,22.482 Z" id="IC_LOGO" fill="#FFFFFF" fill-rule="nonzero"></path>
        </g>
    </g>
</svg>